<?xml version="1.0" encoding="UTF-8"?>
<svg version="1.1" viewBox="0 0 2048 1228" width="250" height="150" xmlns="http://www.w3.org/2000/svg">
<path transform="translate(0)" d="m0 0h2048v1228h-2048z"/>
<path transform="translate(877,223)" d="m0 0h13l16 3 14 5 15 9 13 11 84 84v2l4 2 4 4v2l4 2 54 54 1 6-8 10-11 13-7 7-11 9-10 7-12 5-11 2-13-2-11-5-11-7-13-12-6-5-7-8-12-14-11-13-10-10-11-7-11-5-16-4h-20l-16 4-15 8-10 8-10 9-12 11-60 60-10 14-7 14-3 15v15l2 14 7 16 9 14 14 15 70 70 10 7 16 8 15 4h19l19-5 15-8 8-6h2v-2h2l2-4 8-8 9-11 24-24 12-9 13-6 7-2 8-1h10l10 2 11 4 12 8 19 19 7 9 4 6 1 6-7 8-137 137-8 7-10 9-11 7-11 6-21 5h-13l-17-3-16-7-14-9-15-13-209-209-9-12-8-16-4-13-1-6v-24l4-15 7-14 10-13 75-75 9-10 124-124 8-7 14-12 14-8 14-6z" fill="#1CC36E"/>
<path transform="translate(1109,226)" d="m0 0 10 1 8 4 10 9 15 16 13 13 11 7 11 4 7 1 14-2 10-4h2v-2l6-4 12-11 16-17 11-11 6-3 9-1 11 4 13 10 7 7v2l4 2 4 4v2l4 2 20 20 7 8 6 11 1 9-4 9-8 11-45 45-11 8-4 2h-14l-10-6-25-25-5-6-11-8-11-5-14-2-14 1-13 5-14 10-2 3h-2l-2 8 8 15 10 11 8 7 10 9 8 7 85 85 7 9 7 14 1 4v12l-4 12-6 11-14 15-69 69-13 9-12 4h-17l-11-4-9-6-10-9-16-17-7-8-9-10-5-6-14-11-13-8-16-6-6-1h-26l-14 3-16 8-13 9-13 12-7 7-7 8-12 14-15 15-10 6-9 3-7 1h-11l-13-4-11-8-17-16-25-25-7-8-11-11-8-7-12-12-9-13-4-10-1-5v-14l5-13 7-11 12-13 16-15 16-16 4-5 20-20 16-14 12-7 14-3 13 1 12 4 10 6 14 14 9 11 7 7 9 11 15 15 15 11 16 8 11 3 7 1h9l15-3 14-5 12-7 11-9 23-23 9-11 7-10 5-9v-9l-5-12-8-11-10-9-20-15-17-13-14-11-10-9-7-9-4-11 1-8 8-13 15-16 18-18 8-7 9-9 11-7z" fill="#79DF75"/>
<path transform="translate(877,223)" d="m0 0h13l16 3 14 5 15 9 13 11 84 84v2l4 2 4 4v2l4 2 54 54 1 6-8 10-11 13-7 7-11 9-10 7-12 5-11 2-13-2-11-5-11-7-13-12-6-5-7-8-12-14-11-13-10-10-11-7-11-5-16-4h-20l-16 4-15 8-10 8-11 7-27 27h-2l-2 4h-2v2l-5 4-5 5-6 7-5 5-5 4-6 7-3 1 2-7 4-5h2l1-4 7-10 6-13-4-3v-2l-5-2v-5l-5-1-2-5-6-2-2-1v-2h-2l-2-3h-2l-2-5-4-1-2-2-6 1v-3l-5-1v-2h-6l-1-6-1-3v-7l1-7-5 3-12 12h-2v2l-7 6h-2l-1 3-8 7-10 10-2-1 6-7 5-4 7-8 125-125 8-7 14-12 14-8 14-6z" fill="#7ADF75"/>
<path transform="translate(668,852)" d="m0 0h20l14 3 13 7 9 10 5 11 3 11 1 17v111l-3 17-8 16-7 8-11 7-11 3-7 1h-17l-12-3-10-5-10-9-7-12-4-14-1-8v-121l2-13 5-13 6-8 7-7 14-7z" fill="#D8D9D8"/>
<path transform="translate(781,853)" d="m0 0 43 1 2 3 9 53 7 34 1-7 1-77 1-6h41l1 3v214l-3 1h-39l-3-7-12-60-7-31-1-3v100l-2 1h-38l-3-2v-213z" fill="#D8D9D8"/>
<path transform="translate(1e3 853)" d="m0 0 38 1 1 1 1 138v78l-5 1h-36l-3-1-9-45-7-33-6-22v14l1 30v56l-4 1h-37l-2-2v-214l1-2h43l3 5 9 54 7 28 1 3 1-90z" fill="#D8D9D8"/>
<path transform="translate(824,450)" d="m0 0h6v8l-1 5 2 3 1 7 4 9-1 2h2l2 11 2 16 5 4 3 5 7 3v2l4 1 10 4 6 5 7 3 3-1 8 4 1 1 13 2 5 3 1 4 7 1 4 5v2l5 1 5 6v2h2l1-2v2l4 2 3 3 5-1 4-1 16-1 1 4-1 4 6-2 7-4 7-1-5 4-13 9-13 12-7 7-7 8-12 14-15 15-10 6-9 3-7 1h-11l-13-4-11-8-17-16-25-25-7-8-11-11-8-7-12-12-9-13-4-10-1-5v-14l5-13 7-11 12-13 15-14 5-3 7-6 4-1v-2z" fill="#1CC36E"/>
<path transform="translate(1269,852)" d="m0 0h15l16 3 13 7 9 9 6 12 3 12v45h-42l-1-1-1-36-3-9-2-1h-9l-4 1-1 27v91l1 20h12l5-2 1-10 1-42h44v48l-2 13-5 13-7 9-10 7-11 4-14 2h-14l-16-4-10-6-6-5-7-10-4-11-2-10v-120l2-16 4-12 7-11 8-8 13-7z" fill="#D8D9D8"/>
<path transform="translate(519,852)" d="m0 0h19l16 4 11 6 8 8 7 14 2 9 1 15v31l-3 2-40-1-1-1v-36l-2-7-2-2-9-1-4 2-2 5-1 26v63l1 43h13l4-2 1-3 2-49h42l1 1 1 12v20l-1 20-4 15-6 10-5 6-11 7-14 4-6 1h-16l-14-3-11-6-6-5-7-10-5-12-2-11v-124l3-16 8-16 5-6 13-9 8-3z" fill="#D8D9D8"/>
<path transform="translate(1093,854)" d="m0 0h85l1 2v33l-2 7h-41l1 41 40 2v40l-41 1v49l44 1 2 1v40l-29 1h-58l-3-1v-216z" fill="#D8D9D8"/>
<path transform="translate(1275,226)" d="m0 0 9 1 10 5 11 9 6 6v2l4 2 4 4v2l4 2 20 20 7 8 6 11 1 9-4 9-8 11-45 45-5 4-4-1 6-8 2-5-2 1h-6l-7-4v-3l-10-1-3 2v4l-5 1-11-6-13-12-5-6v-2h-2l-2-5 1-4 5-5-7-14-4-7-8-4-7-2-3-4v-5l-6-1v-3l4-1v-2l10-4h2v-2l6-4 12-11 16-17 11-11 6-3z" fill="#C8FC79"/>
<path transform="translate(1369,854)" d="m0 0h94l1 1-1 38-2 2-22 1-1 48v126l-1 1h-43v-175h-24l-2-7v-32z" fill="#D8D9D8"/>
<path transform="translate(1267,20)" d="m0 0 15 1 10 5 13 12 11 11 9 13 1 2v11l-4 7-11 12-17 17-11 8-6 3h-7l-10-5-10-9-7-8-12-12-9-14v-9l5-9 12-13 8-7 12-12z" fill="#C7FC7A"/>
<path transform="translate(1051,604)" d="m0 0 5 1 9 4 10 3 4 1 8 8 7 9 4 6 1 6-7 8-77 77-5 1 2-5 1-5 4-7 7-15-3 1 1-6-4-2v-12l-4-1-1-8h-2l-1-11-1-7-1-5-3 1 1-4h-2l2-9-3 1 2-4 5-5 4-1v2l7-5 5-1 1 1 6-1 3 1h3l-1-4 3-1-1-7 5-4z" fill="#78DF75"/>
<path transform="translate(1155,1137)" d="m0 0h19l9 4 8 8 4 7 1 4v16l-4 9-10 10-8 4-4 1h-14l-10-5-7-7-5-8-3-11 1-8 5-10 9-10 5-3z" fill="#72DD74"/>
<path transform="translate(989,1137)" d="m0 0h20l7 3 8 7 5 7 3 10-1 12-4 9-6 7-9 6-7 2h-14l-10-5-8-8-5-11-1-11 4-11 6-9 7-6z" fill="#72DD74"/>
<path transform="translate(676,892)" d="m0 0h7l5 5 1 3v123l-1 7-4 3h-11l-4-4-1-11v-104l1-15 2-5z" fill="#000804"/>
<path transform="translate(507,855)" d="m0 0h5l-4 5-6 4-11 15-7 17-2 17-1 19-1 58v12l1 17 3 15 4 10 1 4h2l2 5h2v2l5 2 11 5 18 3 12-1 17-3 8-5 8-11 6-15h1v10l-4 10-8 11-10 7-11 4-11 2h-16l-14-3-11-6-6-5-7-10-5-12-2-11v-124l3-16 8-16 5-6 13-9z" fill="#E8E9E8"/>
<path transform="translate(888,1137)" d="m0 0 5 1 5 4 9 14 12 17 3 3 2-38 7-1 4 2 1 14v27l-1 17-2 2h-6l-8-7-15-25-8-10-1 38-2 4-5 1-3-2-1-3v-56z" fill="#1CC36E"/>
<path transform="translate(1250,1137)" d="m0 0h21l7 3 3 3 3 9-11-3-4-1h-11l-9 3-7 8-2 7 1 10 6 9 5 3 6 2 8-1 4-4v-8l-7-12v-1h10l10 4 1 3v17l-6 8-7 4-5 1h-11l-11-4-9-7-6-10-2-6v-14l6-12 7-7z" fill="#1BC36D"/>
<path transform="translate(800,1137)" d="m0 0h7l2 1v25h13l16 1v-25l1-2h11v60l-4 2h-6l-1-1-1-8v-18l-28-1-1 25-3 3-4 1-4-3-1-7v-23l1-28z" fill="#1BC26C"/>
<path transform="translate(734,1137)" d="m0 0h22l8 3 3 6v5l-7-1-10-2h-7l-9 3-7 8-2 5v8l3 7 6 7 8 3h9l11-4 6-4v8l-6 7-11 4h-14l-10-4-8-7-6-12-1-4v-11l4-10 4-6 8-7z" fill="#1CC26D"/>
<path transform="translate(1159,1147)" d="m0 0h11l7 3 5 5 3 7v12l-4 8-6 5-5 2h-11l-6-3-7-7-3-9v-8l6-9 8-5z"/>
<path transform="translate(997,1146)" d="m0 0h7l9 4 6 8 1 3v14l-4 6-7 6-5 2h-10l-6-3-7-7-3-10 1-8 6-8 5-4z"/>
<path transform="translate(653,1137)" d="m0 0h15l15 1 1 1v5l-2 2-28 2-2 16h21l3 3-1 3-3 1-18 1-1 2v12l5 2h23l2 2v5l-2 2-4 1h-34l-2-5v-54l1-1z" fill="#1AC16C"/>
<path transform="translate(1369,854)" d="m0 0h94l1 1-1 38-2 2h-19l-2-2 6-5 1-2v-19l-2-5-6-2h-60l-4 2-1 3v19l1 6 11 3v2h-17l-1-6v-32z" fill="#E8E9E8"/>
<path transform="translate(1436,898)" d="m0 0h1l1 120v52l-1 1h-43l1-17 1-3h2l4 11 16 2 9-2v-2h2l3-9 1-5-1-34-1-36v-39l2-31z" fill="#E9EAE9"/>
<path transform="translate(1363,1135)" d="m0 0 5 1-3 9-18 32-1 3-1 15-3 6-4-2-2-5-2-15-3-9-8-16-7-11-3-5v-2l10 2 7 8 9 15 1 3 9-14 8-12z" fill="#00B25C"/>
<path transform="translate(1064,1138)" d="m0 0h10l2 1v40l1 8 27 1 1 1-1 7-7 3h-30l-3-4z" fill="#00B25C"/>
<path transform="translate(564,1138)" d="m0 0h40l8 1 1 2-3 5-16 2-1 2-1 10-1 37-2 2h-6l-2-1-1-5v-45l-15-1-5-3 1-5z" fill="#1AC26D"/>
<path transform="translate(926,1137)" d="m0 0 8 1 1 1 1 14v27l-1 17-2 2h-6l-8-7-2-6v-4h2l1-7 2 1 2-38z" fill="#1BC26D"/>
<path transform="translate(1226,1033)" d="m0 0 3 2 4 12 4 5 9 6 12 4 18 2h13l14-2 10-3 5-4 3-4h2l1-3 1 4-7 9-10 7-11 4-14 2h-14l-16-4-10-6-6-5-7-10-4-11z" fill="#E7E8E7"/>
<path transform="translate(839,1137)" d="m0 0h11v60l-4 2h-6l-1-1-1-8v-18l-3-1h2l1-6h-5v-1h5v-25z" fill="#00B25C"/>
<path transform="translate(626,1020)" d="m0 0 2 1 4 17 3 9h2l5 6 16 8 5 2 15 2 14-1 13-2h8l-2 4-10 5-15 3h-17l-12-3-10-5-10-9-7-12-4-14z" fill="#E8E9E8"/>
<path transform="translate(736,543)" d="m0 0 2 2 8 16 7 10 12 13 71 71 10 7 3 3-6 2-11-7v-2h-2v-2h-2l-1-4h-2l-6-9-6-7-4-2v-2h-2v-2l-6-2-2-2-4-5-6-4v-2l-4-2-6-6v-2l-4-2v-2h-2l-4-5-3-6v-2l-4-1-2-6-5-1-10-11-6-12-3-5z" fill="#00B25C"/>
<path transform="translate(540,901)" d="m0 0h1l2 12 3 11h2v2l4 2 4 3 9 1 11-1 1-4 3-11h2v24l-7 1-35-1-1-1v-17z" fill="#E8E9E8"/>
<path transform="translate(1016,1153)" d="m0 0 4 4 3 12v5l-1 2 1 2-1 9 2 1-5 5-5 4-9 3h-14l-5-2 2-1v-4l-5-2-6-4 2-1v-3l4-3 8 7 3 1h10l8-4 6-7 1-2v-14l-3-6z" fill="#1CC26C"/>
<path transform="translate(1094,1056)" d="m0 0 4 2 1 4 9 3 13 1h27l23-2 6-1 5 6v2l-29 1h-58l-2-2v-8z" fill="#E6E7E6"/>
<path transform="translate(1289,920)" d="m0 0h2l4 9 12 1 9-1 9-3 1-2h2l1-3h1v19h-41l-1-1v-17z" fill="#E9EAE9"/>
<path transform="translate(1295,855)" d="m0 0 7 1 11 6 9 9 6 12 1 3v7l-1 2-4-1-5-9-11-11v-2h-2l-7-8-5-6-2-2z" fill="#E8E9E8"/>
<path transform="translate(1263,1164)" d="m0 0h10l10 4 1 3v17l-4 6-3-1-2-3-7 1 2-6v-8l-7-12z" fill="#1BC26D"/>
<path transform="translate(1180,1152)" d="m0 0 5 5 2 4v13l-3 7h2l2 8-9 8-9 3h-14l-5-2v-1h14l-4-4-2-4 11-1 8-4 5-7 1-3v-12l-4-8z" fill="#19C16C"/>
<path transform="translate(884,1139)" d="m0 0 3 4 2 22v17l1 16h2l1-41 2-4 1 3-1 39-2 4-5 1-3-2-1-3z" fill="#00B25C"/>
<path transform="translate(1254,1141)" d="m0 0h19l7 1 4 8v2l-11-3-4-1h-11l-9 3-7 8-3 13h-1v-10l2-9 6-7 3-3z" fill="#00B25C"/>
<path transform="translate(1177,856)" d="m0 0h2v33l-1 6h-36v-1l10-2 17-2 3-4 3-27z" fill="#E7E8E7"/>
<path transform="translate(545,855)" d="m0 0 9 1 11 6 8 8 7 14 1 4v23h-1l-6-25-10-19-8-5-11-6z" fill="#E7E8E7"/>
<path transform="translate(903,1153)" d="m0 0h2l11 16 4 5 1 4-2 4h-2l2 7h-2l-13-22-5-6 1-4 1-2h2z" fill="#6BDA73"/>
<path transform="translate(840,1048)" d="m0 0 4 4 5 10 9 3 16 2 6 1 2 1v2h-38l-4-15z" fill="#E9EAE9"/>
<path transform="translate(780,1032)" d="m0 0h1l2 19 2 12 3 4 29 1 2 3h-39l-1-1v-37z" fill="#E7E8E7"/>
<path transform="translate(1363,1135)" d="m0 0 5 1-3 9-9 16-6 9-1-2 5-17 1-3-3 1 1-5 5-7z" fill="#19C26C"/>
<path transform="translate(995,1141)" d="m0 0h10l9 1 2 3v3h-2l1 4-8-4-3-1h-7l-10 5-3 2v-2l-4-2v-3l4-3 5-2z" fill="#1AC26D"/>
<path transform="translate(799,1138)" d="m0 0 2 4 1 25v22l1 7-1 2 4 1-4 1-4-3-1-7v-23l1-28z" fill="#00B25C"/>
<path transform="translate(915,811)" d="m0 0 6 1-4 3-17 5-6 1h-13l-13-2v-1h5v-2l4-1h20l12-2z" fill="#00B25C"/>
<path transform="translate(578,1147)" d="m0 0h3l1 12h1l3 22 1 17 2 1h-6l-2-1-1-5v-45z" fill="#00B25C"/>
<path transform="translate(980,858)" d="m0 0 3 1 8 49v8l-3-4-3-13-3-17-4-18z" fill="#E6E7E6"/>
<path transform="translate(824,857)" d="m0 0h2l9 53v9l-2-3-3-12-2-14-3-8-3-16v-7z" fill="#E6E7E6"/>
<path transform="translate(1313,1136)" d="m0 0 10 2 7 8 7 12-1 5-4-2-7-10v-2h-5l-5-8z" fill="#1CC26D"/>
<path transform="translate(998,1054)" d="m0 0 4 2 3 7 11 3 7 1 13 2 1 2h-37l-2-9z" fill="#E9EAE9"/>
<path transform="translate(591,514)" d="m0 0 4 2 1 7-1 11 2 9v6l-3 3-2-3-4-16v-8l2-1v-9z" fill="#01B35D"/>
<path transform="translate(706,860)" d="m0 0h6l9 8 5 8 1 11-3 1v-2h-2l-4-9-3-4v-2h-2l-1-4h-2v-2h-2z" fill="#E8E9E8"/>
<path transform="translate(1250,858)" d="m0 0 3 1-4 6-5 4-4 10-4 6-5 3h-2l1-8 7-11 8-8z" fill="#E8E9E8"/>
<path transform="translate(659,417)" d="m0 0 2 1-16 17-19 19h-2l-2 4-11 11-10 13-4 7-1-4 9-13 9-10z" fill="#6EDC75"/>
<path transform="translate(1159,1141)" d="m0 0h13l7 2 2 5h-2l1 4-4-2-6-2h-11l-6 3h-2l-1-6z" fill="#19C26C"/>
<path transform="translate(829,391)" d="m0 0 2 1-7 7-8 7-58 58-2-2 8-7 5-5 5-6 5-4 5-6h2l2-4 4-2v-2l8-7 25-25z" fill="#12BD68"/>
<path transform="translate(809,1164)" d="m0 0h24l5 1-1 6-28-1z" fill="#7BE076"/>
<path transform="translate(1268,1187)" d="m0 0 2 3 5-1 4 6-8 5-5 1h-11l-7-2 4-2 5 1h7v-3l2-1v-2l-6 1-5-2 3-1 8-1z" fill="#00B25C"/>
<path transform="translate(966,581)" d="m0 0 1 3-6 6-2 6-7 7-5 2-3-1 2-5 6-7 3-3 1-3z" fill="#74DD75"/>
<path transform="translate(934,1139)" d="m0 0h1l1 14v27l-1 17h-1l-1-22-1-5v-16l1-14z" fill="#00B25C"/>
<path transform="translate(662,1164)" d="m0 0h11l3 3-1 3-3 1h-15l-3-1v-5z" fill="#6ADA73"/>
<path transform="translate(844,1137)" d="m0 0h6l-1 19-1 6h-4l-1-10 1-5h2v-6h-2l-1-3z" fill="#1CC36E"/>
<path transform="translate(647,860)" d="m0 0h4l-2 5-5 5-6 8-4 2-2-1 1-5 9-10z" fill="#E8E9E8"/>
<path transform="translate(1337,1171)" d="m0 0h3l4 9v18l-2 3h-2l-2-24z" fill="#1BC36E"/>
<path transform="translate(1e3 595)" d="m0 0 2 1-11 8-5 6-5 4-5 3-15 15-1 2-2-1 7-8 19-19 12-9z" fill="#5ED671"/>
<path transform="translate(659,1141)" d="m0 0h11l4 1 1 2 7 1v1l-15 1h-12l2-5z" fill="#00B25C"/>
<path transform="translate(1146,1179)" d="m0 0 7 6 6 3-4 5-6-1-5-6 1-6z" fill="#1AC26D"/>
<path transform="translate(597,1144)" d="m0 0 13 1v1l-16 2-1 2-1 10-1 37h-1v-50z" fill="#00B25C"/>
<path transform="translate(1267,20)" d="m0 0 15 1 5 2-3 1-6-1v2l-5 1-11 1-3-3z" fill="#72DC74"/>
<path transform="translate(1134,899)" d="m0 0h1v35l-2-1-1-5v-22z" fill="#EAEBEA"/>
<path transform="translate(623,454)" d="m0 0v3l-12 12-10 13-4 7-1-4 9-13 7-8 8-7z" fill="#60D672"/>
<path transform="translate(1275,226)" d="m0 0 9 1 7 3v1h-18l-2 1-6-1 3-3z" fill="#6AD972"/>
<path transform="translate(829,391)" d="m0 0 2 1-7 7-8 7-21 21v-3l30-30z" fill="#0EBB65"/>
<path transform="translate(757,1143)" d="m0 0 7 2 3 1v5l-7-1-17-3 2-1 1-2 9 3v-2h2z" fill="#00B25C"/>
<path transform="translate(1263,1164)" d="m0 0h10l2 1v5l-3 2h-5z" fill="#6CDB74"/>
<path transform="translate(829,890)" d="m0 0 3 3 3 17v9l-2-3-3-12-2-13z" fill="#E5E6E5"/>
<path transform="translate(1066,1138)" d="m0 0h6l1 1v7l-2 4-4-4-2-7z" fill="#1DC46F"/>
<path transform="translate(1134,985)" d="m0 0h1v34h-1l-1-7-1-15z" fill="#EAEBEA"/>
<path transform="translate(561,1139)" d="m0 0h9l-2 1 1 3-2 3h-5l-2-2z" fill="#6BDA73"/>
<path transform="translate(1095,633)" d="m0 0 3 3 1 6-4 4-3-9v-3z" fill="#18C16B"/>
<path transform="translate(1353,294)" d="m0 0 2 1 2 6-1 9-2 5-1-3z" fill="#60D670"/>
<path transform="translate(1e3 595)" d="m0 0 2 1-11 8-5 6-5 3 2-4 7-8z" fill="#66D872"/>
<path transform="translate(755,461)" d="m0 0 2 1-1 4-8 10h-2l1-5 3-4h2l1-4h2z" fill="#63D873"/>
<path transform="translate(651,1154)" d="m0 0h1v10h10v1h-8v5l3 1-3 1-2 2-1-4z" fill="#0BB963"/>
<path transform="translate(1194,1156)" d="m0 0 2 4v16l-1 3h-2v-16z" fill="#14BE69"/>
<path transform="translate(600,1139)" d="m0 0h12l1 2-1 3-5-1-7-3z" fill="#70DC74"/>
<path transform="translate(1174,975)" d="m0 0h2l-1 4-24-1v-1l22-1z" fill="#EAEBEA"/>
<path transform="translate(623,454)" d="m0 0v3l-12 12-4 2 2-4 13-12z" fill="#68D972"/>
<path transform="translate(771,448)" d="m0 0 2 1-15 15-2-2 8-7 5-5z" fill="#10BC66"/>
<path transform="translate(1030,1159)" d="m0 0h1l1 9-2 11h-1v-14z" fill="#12BD67"/>
<path transform="translate(1283,1171)" d="m0 0h1v17l-2 2-1-4 1-12z" fill="#00B25C"/>
<path transform="translate(1151,1197)" d="m0 0h8l11 2v1h-14l-5-2z" fill="#0EBA65"/>
<path transform="translate(829,391)" d="m0 0 2 1-7 7-7 6-2-1 10-10z" fill="#18C16C"/>
<path transform="translate(1180,1152)" d="m0 0 5 5 2 4v11h-1l-1-9-5-9z" fill="#14BE69"/>
<path transform="translate(885,400)" d="m0 0 13 1 4 2h-12l-6-1z" fill="#12BD68"/>
<path transform="translate(1269,1173)" d="m0 0 4 1 1 3-2 8h-1z" fill="#00B25C"/>
</svg>
